<svg
  width="98"
  height="98"
  viewBox="0 0 98 98"
  fill="none"
  xmlns="http://www.w3.org/2000/svg"
>
  <ellipse cx="49.25" cy="49.258" rx="48.75" ry="48.425" fill="#FFDB80" />
  <g clip-path="url(#clip0_745_1873)">
    <path
      d="M72.2405 28.2725H25.4538C22.5916 28.2725 20.2773 30.5929 20.2773 33.4626V60.3228C20.2773 62.0087 21.2692 63.4483 22.6956 64.1207C22.9412 64.2344 23.1395 64.4238 23.234 64.6795L28.8355 79.8902C29.1284 80.6763 30.2147 80.7426 30.602 80.0038L38.31 65.0678C38.48 64.7458 38.8107 64.5469 39.1696 64.5469H72.2405C75.1027 64.5469 77.417 62.2265 77.417 59.3567V33.4626C77.417 30.5929 75.1027 28.2725 72.2405 28.2725Z"
      fill="white"
      stroke="#E88900"
      stroke-width="3"
      stroke-miterlimit="10"
    />
    <path
      d="M31.1973 41.8164H48.8521"
      stroke="#E88900"
      stroke-width="2"
      stroke-miterlimit="10"
      stroke-linecap="round"
    />
    <path
      d="M31.1973 50.0371H69.6997"
      stroke="#E88900"
      stroke-width="2"
      stroke-miterlimit="10"
      stroke-linecap="round"
    />
  </g>
  <defs>
    <clipPath id="clip0_745_1873">
      <rect
        width="68.3333"
        height="74.5"
        fill="white"
        transform="translate(10.5 7.45508)"
      />
    </clipPath>
  </defs>
</svg>
