  <svg
      width="23"
      height="29"
      viewBox="0 0 23 29"
      fill="none"
      xmlns="http://www.w3.org/2000/svg"
    >
      <path
        d="M6.98028 14.9192C10.8354 14.9192 13.9606 11.5794 13.9606 7.45958C13.9606 3.33977 10.8354 0 6.98028 0C3.12518 0 0 3.33977 0 7.45958C0 11.5794 3.12518 14.9192 6.98028 14.9192Z"
        fill="#FFB600"
      />
      <path
        d="M5.46484 8V26.5603C5.46484 27.4548 6.54936 27.8993 7.17716 27.2622L12.9873 21.3656C13.3878 20.9591 14.0469 20.9697 14.4341 21.389L19.7303 27.1223C20.3479 27.7908 21.4648 27.3539 21.4648 26.4437V8C21.4648 7.44772 21.0171 7 20.4648 7H6.46484C5.91256 7 5.46484 7.44772 5.46484 8Z"
        fill="white"
        stroke="#7C3B00"
        stroke-width="2"
      />
    </svg>