 <svg
      width="26"
      height="30"
      viewBox="0 0 26 30"
      fill="none"
      xmlns="http://www.w3.org/2000/svg"
    >
      <g clip-path="url(#clip0_754_371)">
        <path
          d="M7.51543 14.9192C11.3705 14.9192 14.4957 11.5794 14.4957 7.45958C14.4957 3.33977 11.3705 0 7.51543 0C3.66033 0 0.535156 3.33977 0.535156 7.45958C0.535156 11.5794 3.66033 14.9192 7.51543 14.9192Z"
          fill="#FFB600"
        />
        <path
          d="M14.3756 18.3375C17.817 18.3375 20.6067 15.3561 20.6067 11.6785C20.6067 8.00085 17.817 5.01953 14.3756 5.01953C10.9343 5.01953 8.14453 8.00085 8.14453 11.6785C8.14453 15.3561 10.9343 18.3375 14.3756 18.3375Z"
          fill="white"
          stroke="#7C3B00"
          stroke-width="2"
          stroke-miterlimit="10"
        />
        <path
          d="M5.28524 29.4223H23.6796C24.2883 29.4223 24.7637 28.8603 24.6953 28.2175C24.3928 25.3422 22.7936 18.333 14.3834 18.333C5.97319 18.333 4.50726 25.3846 4.26594 28.2406C4.21191 28.8796 4.68375 29.4223 5.28524 29.4223Z"
          fill="white"
          stroke="#7C3B00"
          stroke-width="2"
          stroke-miterlimit="10"
        />
      </g>
      <defs>
        <clipPath id="clip0_754_371">
          <rect
            width="24.7083"
            height="30"
            fill="white"
            transform="translate(0.535156)"
          />
        </clipPath>
      </defs>
    </svg>