  <svg
      width="25"
      height="30"
      viewBox="0 0 25 30"
      fill="none"
      xmlns="http://www.w3.org/2000/svg"
    >
      <g clip-path="url(#clip0_754_375)">
        <path
          d="M6.89869 15.4895C10.7044 15.4895 13.7896 12.0221 13.7896 7.74477C13.7896 3.46745 10.7044 0 6.89869 0C3.09296 0 0.0078125 3.46745 0.0078125 7.74477C0.0078125 12.0221 3.09296 15.4895 6.89869 15.4895Z"
          fill="#FFB600"
        />
        <path
          d="M6.89869 15.4895C10.7044 15.4895 13.7896 12.0221 13.7896 7.74477C13.7896 3.46745 10.7044 0 6.89869 0C3.09296 0 0.0078125 3.46745 0.0078125 7.74477C0.0078125 12.0221 3.09296 15.4895 6.89869 15.4895Z"
          fill="#FFB600"
        />
        <path
          d="M1.13502 23.7257L19.0022 4.00812C19.0733 3.93219 19.1836 3.93219 19.2547 4.00812L24.1259 9.3871C24.1971 9.46702 24.1971 9.5989 24.1259 9.67483L6.30851 29.3405C6.2765 29.3764 6.23028 29.4004 6.1805 29.4004C6.1805 29.4004 1.07812 29.3085 1.07812 29.1966V23.8736C1.07812 23.8176 1.0959 23.7657 1.13146 23.7297L1.13502 23.7257Z"
          fill="white"
          stroke="#7C3B00"
          stroke-width="2"
          stroke-miterlimit="10"
          stroke-linecap="round"
        />
        <path
          d="M16.2422 7.05762L21.3197 12.7643"
          stroke="#7C3B00"
          stroke-width="2"
          stroke-miterlimit="10"
          stroke-linecap="round"
        />
        <path
          d="M24.1832 29.4004H1.08203"
          stroke="#7C3B00"
          stroke-width="2"
          stroke-miterlimit="10"
          stroke-linecap="round"
        />
      </g>
      <defs>
        <clipPath id="clip0_754_375">
          <rect
            width="24.7083"
            height="30"
            fill="white"
            transform="translate(0.0078125)"
          />
        </clipPath>
      </defs>
    </svg>