<svg xmlns="http://www.w3.org/2000/svg" style="display: none;">
    <symbol id="navUser" viewBox="0 0 26 30">
      <g clip-path="url(#clip0_754_371)">
        <path
          d="M7.51543 14.9192C11.3705 14.9192 14.4957 11.5794 14.4957 7.45958C14.4957 3.33977 11.3705 0 7.51543 0C3.66033 0 0.535156 3.33977 0.535156 7.45958C0.535156 11.5794 3.66033 14.9192 7.51543 14.9192Z"
          fill="#FFB600"
        />
        <path
          d="M14.3756 18.3375C17.817 18.3375 20.6067 15.3561 20.6067 11.6785C20.6067 8.00085 17.817 5.01953 14.3756 5.01953C10.9343 5.01953 8.14453 8.00085 8.14453 11.6785C8.14453 15.3561 10.9343 18.3375 14.3756 18.3375Z"
          fill="white"
          stroke="#7C3B00"
          stroke-width="2"
          stroke-miterlimit="10"
        />
        <path
          d="M5.28524 29.4223H23.6796C24.2883 29.4223 24.7637 28.8603 24.6953 28.2175C24.3928 25.3422 22.7936 18.333 14.3834 18.333C5.97319 18.333 4.50726 25.3846 4.26594 28.2406C4.21191 28.8796 4.68375 29.4223 5.28524 29.4223Z"
          fill="white"
          stroke="#7C3B00"
          stroke-width="2"
          stroke-miterlimit="10"
        />
      </g>
      <defs>
        <clipPath id="clip0_754_371">
          <rect
            width="24.7083"
            height="30"
            fill="white"
            transform="translate(0.535156)"
          />
        </clipPath>
      </defs>
    </symbol>
    <symbol id="navScrap" viewBox="0 0 23 29">
      <path
        d="M6.98028 14.9192C10.8354 14.9192 13.9606 11.5794 13.9606 7.45958C13.9606 3.33977 10.8354 0 6.98028 0C3.12518 0 0 3.33977 0 7.45958C0 11.5794 3.12518 14.9192 6.98028 14.9192Z"
        fill="#FFB600"
      />
      <path
        d="M5.46484 8V26.5603C5.46484 27.4548 6.54936 27.8993 7.17716 27.2622L12.9873 21.3656C13.3878 20.9591 14.0469 20.9697 14.4341 21.389L19.7303 27.1223C20.3479 27.7908 21.4648 27.3539 21.4648 26.4437V8C21.4648 7.44772 21.0171 7 20.4648 7H6.46484C5.91256 7 5.46484 7.44772 5.46484 8Z"
        fill="white"
        stroke="#7C3B00"
        stroke-width="2"
      />
    </symbol>
    <symbol id="navChat"  viewBox="0 0 31 30">
      <g clip-path="url(#clip0_754_384)">
        <path
          d="M8.24798 14.7826C12.6867 14.7826 16.285 11.4734 16.285 7.3913C16.285 3.3092 12.6867 0 8.24798 0C3.80925 0 0.210938 3.3092 0.210938 7.3913C0.210938 11.4734 3.80925 14.7826 8.24798 14.7826Z"
          fill="#FFB600"
        />
        <path
          d="M27.317 8.38281H6.77651C5.51994 8.38281 4.50391 9.31721 4.50391 10.4728V21.289C4.50391 21.9679 4.93935 22.5476 5.56556 22.8184C5.67338 22.8641 5.76047 22.9404 5.80194 23.0434L8.26116 29.1685C8.38972 29.485 8.86664 29.5117 9.03667 29.2142L12.4207 23.1997C12.4953 23.0701 12.6405 22.99 12.7981 22.99H27.317C28.5736 22.99 29.5896 22.0556 29.5896 20.9V10.4728C29.5896 9.31721 28.5736 8.38281 27.317 8.38281Z"
          fill="white"
          stroke="#7C3B00"
          stroke-width="2"
          stroke-miterlimit="10"
        />
        <path
          d="M9.29688 13.8369H17.0478"
          stroke="#7C3B00"
          stroke-width="2"
          stroke-miterlimit="10"
          strokeLinecap="round"
        />
        <path
          d="M9.29688 17.1475H26.2004"
          stroke="#7C3B00"
          stroke-width="2"
          stroke-miterlimit="10"
          strokeLinecap="round"
        />
      </g>
      <defs>
        <clipPath id="clip0_754_384">
          <rect
            width="30"
            height="30"
            fill="white"
            transform="translate(0.210938)"
          />
        </clipPath>
      </defs>
    </symbol>
    <symbol id="naWriting"  viewBox="0 0 25 30">
      <g clip-path="url(#clip0_754_375)">
        <path
          d="M6.89869 15.4895C10.7044 15.4895 13.7896 12.0221 13.7896 7.74477C13.7896 3.46745 10.7044 0 6.89869 0C3.09296 0 0.0078125 3.46745 0.0078125 7.74477C0.0078125 12.0221 3.09296 15.4895 6.89869 15.4895Z"
          fill="#FFB600"
        />
        <path
          d="M6.89869 15.4895C10.7044 15.4895 13.7896 12.0221 13.7896 7.74477C13.7896 3.46745 10.7044 0 6.89869 0C3.09296 0 0.0078125 3.46745 0.0078125 7.74477C0.0078125 12.0221 3.09296 15.4895 6.89869 15.4895Z"
          fill="#FFB600"
        />
        <path
          d="M1.13502 23.7257L19.0022 4.00812C19.0733 3.93219 19.1836 3.93219 19.2547 4.00812L24.1259 9.3871C24.1971 9.46702 24.1971 9.5989 24.1259 9.67483L6.30851 29.3405C6.2765 29.3764 6.23028 29.4004 6.1805 29.4004C6.1805 29.4004 1.07812 29.3085 1.07812 29.1966V23.8736C1.07812 23.8176 1.0959 23.7657 1.13146 23.7297L1.13502 23.7257Z"
          fill="white"
          stroke="#7C3B00"
          stroke-width="2"
          stroke-miterlimit="10"
          stroke-linecap="round"
        />
        <path
          d="M16.2422 7.05762L21.3197 12.7643"
          stroke="#7C3B00"
          stroke-width="2"
          stroke-miterlimit="10"
          stroke-linecap="round"
        />
        <path
          d="M24.1832 29.4004H1.08203"
          stroke="#7C3B00"
          stroke-width="2"
          stroke-miterlimit="10"
          stroke-linecap="round"
        />
      </g>
      <defs>
        <clipPath id="clip0_754_375">
          <rect
            width="24.7083"
            height="30"
            fill="white"
            transform="translate(0.0078125)"
          />
        </clipPath>
      </defs>
    </symbol>
</svg>